# Blender 3.6.5
# www.blender.org
mtllib Mushroom_door.mtl
o Doorway
v 0.318198 0.344415 0.768198
v 0.337797 0.175581 0.815515
v 0.344415 -0.000000 0.831491
v 0.337797 -0.175581 0.815515
v 0.318198 -0.382000 0.768198
v 0.162216 0.344415 0.815515
v 0.172208 0.175581 0.865746
v 0.175581 -0.000000 0.882707
v 0.172208 -0.175581 0.865746
v 0.162216 -0.382000 0.815515
v -0.000000 0.344415 0.831491
v 0.000000 0.175581 0.882707
v -0.000000 -0.000000 0.900000
v 0.000000 -0.175581 0.882707
v -0.000000 -0.382000 0.831491
v -0.162216 0.344415 0.815514
v -0.172208 0.175581 0.865746
v -0.175581 -0.000000 0.882706
v -0.172208 -0.175581 0.865746
v -0.162216 -0.382000 0.815514
v -0.318198 0.344415 0.768198
v -0.337797 0.175581 0.815515
v -0.344415 -0.000000 0.831491
v -0.337797 -0.175581 0.815515
v -0.318198 -0.382000 0.768198
v 0.318198 -0.382000 0.249023
v 0.162216 -0.382000 0.296339
v -0.000000 -0.382000 0.312316
v -0.162216 -0.382000 0.296339
v -0.318198 -0.382000 0.249023
vn 0.2779 0.2890 0.9161
vn 0.1914 0.1939 0.9622
vn 0.2848 0.1930 0.9389
vn 0.1951 -0.0000 0.9808
vn 0.2903 -0.0000 0.9569
vn 0.1923 -0.1691 0.9667
vn 0.2861 -0.1683 0.9433
vn 0.1647 -0.8236 0.5428
vn 0.1246 -0.7693 0.6266
vn -0.0000 -0.1691 0.9856
vn -0.0000 -0.7693 0.6389
vn 0.1867 0.2903 0.9386
vn -0.0000 0.1939 0.9810
vn -0.0000 -0.0000 1.0000
vn -0.0000 0.2903 0.9569
vn -0.1914 0.1939 0.9622
vn -0.1951 -0.0000 0.9808
vn -0.1923 -0.1691 0.9667
vn -0.1246 -0.7693 0.6266
vn -0.2861 -0.1683 0.9433
vn -0.1647 -0.8236 0.5428
vn -0.1867 0.2903 0.9386
vn -0.2848 0.1930 0.9389
vn -0.2903 -0.0000 0.9569
vn -0.0000 -1.0000 -0.0000
vn -0.2779 0.2890 0.9161
vt 0.312500 0.625000
vt 0.281250 0.562500
vt 0.312500 0.562500
vt 0.281250 0.500000
vt 0.312500 0.500000
vt 0.281250 0.437500
vt 0.312500 0.437500
vt 0.312500 0.375000
vt 0.281250 0.375000
vt 0.250000 0.437500
vt 0.250000 0.375000
vt 0.281250 0.625000
vt 0.250000 0.562500
vt 0.250000 0.500000
vt 0.250000 0.625000
vt 0.218750 0.562500
vt 0.218750 0.500000
vt 0.218750 0.437500
vt 0.218750 0.375000
vt 0.187500 0.437500
vt 0.187500 0.375000
vt 0.218750 0.625000
vt 0.187500 0.562500
vt 0.187500 0.500000
vt 0.187500 0.625000
s 1
usemtl Material.003
f 1/1/1 7/2/2 2/3/3
f 2/3/3 8/4/4 3/5/5
f 3/5/5 9/6/6 4/7/7
f 5/8/8 9/6/6 10/9/9
f 8/4/4 14/10/10 9/6/6
f 10/9/9 14/10/10 15/11/11
f 6/12/12 12/13/13 7/2/2
f 8/4/4 12/13/13 13/14/14
f 11/15/15 17/16/16 12/13/13
f 12/13/13 18/17/17 13/14/14
f 13/14/14 19/18/18 14/10/10
f 15/11/11 19/18/18 20/19/19
f 18/17/17 24/20/20 19/18/18
f 20/19/19 24/20/20 25/21/21
f 16/22/22 22/23/23 17/16/16
f 17/16/16 23/24/24 18/17/17
f 5/8/8 27/9/25 26/8/25
f 10/9/9 28/11/25 27/9/25
f 20/19/19 28/11/25 15/11/11
f 25/21/21 29/19/25 20/19/19
f 1/1/1 6/12/12 7/2/2
f 2/3/3 7/2/2 8/4/4
f 3/5/5 8/4/4 9/6/6
f 5/8/8 4/7/7 9/6/6
f 8/4/4 13/14/14 14/10/10
f 10/9/9 9/6/6 14/10/10
f 6/12/12 11/15/15 12/13/13
f 8/4/4 7/2/2 12/13/13
f 11/15/15 16/22/22 17/16/16
f 12/13/13 17/16/16 18/17/17
f 13/14/14 18/17/17 19/18/18
f 15/11/11 14/10/10 19/18/18
f 18/17/17 23/24/24 24/20/20
f 20/19/19 19/18/18 24/20/20
f 16/22/22 21/25/26 22/23/23
f 17/16/16 22/23/23 23/24/24
f 5/8/8 10/9/9 27/9/25
f 10/9/9 15/11/11 28/11/25
f 20/19/19 29/19/25 28/11/25
f 25/21/21 30/21/25 29/19/25
